# xmcd CD database file
#
# Track frame offsets:
#	150
#	5818
#	24568
#	45889
#	62088
#	77572
#	95725
#	118831
#	134419
#	149394
#	167642
#	188513
#	201237
#	220314
#
# Disc length: 3132 seconds
#
# Revision: 0
# Processed by: cddbd v1.5.2PL0 Copyright (c) Steve Scherf et al.
# Submitted via: CDex 1.70beta2
#
DISCID=c50c3a0e
DTITLE=Yann Armellino - Y and C "GIMME THE SOUND"
DYEAR=2008
DGENRE=Blues
TTITLE0=Gimme The Sound
TTITLE1=High Above The Unknown Places
TTITLE2=Time is Running Out
TTITLE3=After The Tour
TTITLE4=I Remember Yesterday
TTITLE5=It's a Nightmare Every Morning
TTITLE6=I Just Wish I Could Be Home
TTITLE7=Armorik N Roll
TTITLE8=Let's Fly Higher
TTITLE9=S.O.S
TTITLE10=Little Sister
TTITLE11=Oversea
TTITLE12=High Above The Unknown Places acoustic
TTITLE13=Isle Of Jura
EXTD=YEAR: 2008
EXTT0=
EXTT1=
EXTT2=
EXTT3=
EXTT4=
EXTT5=
EXTT6=
EXTT7=
EXTT8=
EXTT9=
EXTT10=
EXTT11=
EXTT12=
EXTT13=
PLAYORDER=
